# xmcd CD database file
#
# Track frame offsets:
#	150
#	10383
#	26614
#	49049
#	67222
#	78916
#	90103
#	112113
#	123206
#	140683
#	156289
#	170937
#	185728
#	198485
#	215006
#	237636
#	255407
#	271396
#	295386
#	308278
#	331135
#
# Disc length: 4625 seconds
#
# Revision: 0
# Processed by: cddbd v1.5.2PL0 Copyright (c) Steve Scherf et al.
# Submitted via: CDex 1.70beta2
#
DISCID=37120f15
DTITLE=小林圭 - Kei スタンダード ～the best of kei kobayashi～
DYEAR=2009
DGENRE=Jazz
TTITLE0=ナイト・アンド・デイ
TTITLE1=スイングしなけりゃ意味ないね
TTITLE2=君住む街で
TTITLE3=フライ・ミー・トゥ・ザ・ムーン
TTITLE4=ユー・ワー・メント・フォー・ミー
TTITLE5=ハウ・ハイ・ザ・ムーン
TTITLE6=ミスティ
TTITLE7=星に願いを
TTITLE8=L-O-V-E
TTITLE9=スマイル
TTITLE10=ジャスト・フレンズ
TTITLE11=ユード・ビー・ソー・ナイス・トゥ・カム・ホーム・トゥ
TTITLE12=枯葉
TTITLE13=イースト・オブ・ザ・サン
TTITLE14=ネイチャー・ボーイ
TTITLE15=ビーズ・ア・トランプ
TTITLE16=流し目プレイ☆
TTITLE17=ラウンド・ミッドナイト
TTITLE18=ララルー
TTITLE19=この素晴らしき世界
TTITLE20=イン・マイ・ライフ
EXTD=YEAR: 2009
EXTT0=
EXTT1=
EXTT2=
EXTT3=
EXTT4=
EXTT5=
EXTT6=
EXTT7=
EXTT8=
EXTT9=
EXTT10=
EXTT11=
EXTT12=
EXTT13=
EXTT14=
EXTT15=
EXTT16=
EXTT17=
EXTT18=
EXTT19=
EXTT20=
PLAYORDER=
